<mxfile host="app.diagrams.net" modified="2021-03-04T05:41:50.278Z" agent="5.0 (Windows)" etag="_NJhcjZT1y4fK_61j4Xs" version="14.2.6" type="github">
  <diagram id="5x39gvwsAm8dVPawQ9lY" name="Page-1">
    <mxGraphModel dx="1422" dy="1863" grid="1" gridSize="10" guides="1" tooltips="1" connect="1" arrows="1" fold="1" page="1" pageScale="1" pageWidth="850" pageHeight="1100" math="0" shadow="0">
      <root>
        <mxCell id="0" />
        <mxCell id="1" parent="0" />
        <mxCell id="fPrg2TbG4v94ZWlZi-Cl-1" value="" style="whiteSpace=wrap;html=1;aspect=fixed;" vertex="1" parent="1">
          <mxGeometry x="65" y="270" width="360" height="360" as="geometry" />
        </mxCell>
        <mxCell id="fPrg2TbG4v94ZWlZi-Cl-2" value="&lt;b&gt;&lt;font style=&quot;font-size: 16px&quot;&gt;Mock.DICOMBridge&lt;/font&gt;&lt;/b&gt;" style="text;html=1;strokeColor=none;fillColor=none;align=center;verticalAlign=middle;whiteSpace=wrap;rounded=0;" vertex="1" parent="1">
          <mxGeometry x="170" y="290" width="150" height="30" as="geometry" />
        </mxCell>
        <mxCell id="fPrg2TbG4v94ZWlZi-Cl-3" value="&lt;i&gt;RTPlan JSON File&lt;/i&gt;" style="shape=cylinder3;whiteSpace=wrap;html=1;boundedLbl=1;backgroundOutline=1;size=15;" vertex="1" parent="1">
          <mxGeometry x="130" y="380" width="140" height="190" as="geometry" />
        </mxCell>
        <mxCell id="fPrg2TbG4v94ZWlZi-Cl-4" value="&lt;div&gt;&lt;font size=&quot;1&quot;&gt;&lt;b style=&quot;font-size: 16px&quot;&gt;API&lt;/b&gt;&lt;/font&gt;&lt;/div&gt;&lt;div&gt;&lt;font size=&quot;1&quot;&gt;&lt;i style=&quot;font-size: 14px&quot;&gt;RTPlan GetRTPlan(string uid)&lt;/i&gt;&lt;/font&gt;&lt;br&gt;&lt;/div&gt;" style="rounded=0;whiteSpace=wrap;html=1;" vertex="1" parent="1">
          <mxGeometry x="320" y="400" width="192" height="90" as="geometry" />
        </mxCell>
        <mxCell id="fPrg2TbG4v94ZWlZi-Cl-5" value="&lt;b&gt;&lt;font style=&quot;font-size: 18px&quot;&gt;TSM Service&lt;/font&gt;&lt;/b&gt;" style="whiteSpace=wrap;html=1;aspect=fixed;" vertex="1" parent="1">
          <mxGeometry x="710" y="290" width="320" height="320" as="geometry" />
        </mxCell>
        <mxCell id="fPrg2TbG4v94ZWlZi-Cl-6" value="" style="endArrow=classic;html=1;" edge="1" parent="1">
          <mxGeometry width="50" height="50" relative="1" as="geometry">
            <mxPoint x="512" y="462" as="sourcePoint" />
            <mxPoint x="713" y="462" as="targetPoint" />
          </mxGeometry>
        </mxCell>
        <mxCell id="fPrg2TbG4v94ZWlZi-Cl-7" value="" style="endArrow=classic;html=1;entryX=0.99;entryY=0.344;entryDx=0;entryDy=0;rounded=1;entryPerimeter=0;" edge="1" parent="1" target="fPrg2TbG4v94ZWlZi-Cl-4">
          <mxGeometry width="50" height="50" relative="1" as="geometry">
            <mxPoint x="710" y="431" as="sourcePoint" />
            <mxPoint x="510" y="423" as="targetPoint" />
          </mxGeometry>
        </mxCell>
        <mxCell id="fPrg2TbG4v94ZWlZi-Cl-8" value="&lt;font style=&quot;font-size: 14px&quot;&gt;&lt;b&gt;Message Handler&lt;br&gt;&lt;/b&gt;&lt;/font&gt;" style="rounded=0;whiteSpace=wrap;html=1;" vertex="1" parent="1">
          <mxGeometry x="810" y="260" width="120" height="60" as="geometry" />
        </mxCell>
        <mxCell id="fPrg2TbG4v94ZWlZi-Cl-9" value="" style="whiteSpace=wrap;html=1;aspect=fixed;" vertex="1" parent="1">
          <mxGeometry x="455" y="-50" width="255" height="255" as="geometry" />
        </mxCell>
        <mxCell id="fPrg2TbG4v94ZWlZi-Cl-10" value="&lt;div style=&quot;line-height: 1.75 ; font-size: 15px&quot; align=&quot;left&quot;&gt;&lt;b&gt;&lt;font style=&quot;font-size: 15px&quot;&gt;AddTreatmentSessionCommand&lt;/font&gt;&lt;/b&gt;&lt;/div&gt;&lt;div style=&quot;line-height: 1.75 ; font-size: 15px&quot; align=&quot;left&quot;&gt;&lt;b&gt;&lt;font style=&quot;font-size: 15px&quot;&gt;&amp;nbsp;&amp;nbsp;&amp;nbsp;&amp;nbsp;&amp;nbsp;&amp;nbsp;&amp;nbsp;&amp;nbsp;&amp;nbsp;&amp;nbsp;&amp;nbsp;&amp;nbsp;&amp;nbsp;&amp;nbsp;&amp;nbsp;&amp;nbsp;&amp;nbsp;&amp;nbsp;&amp;nbsp;&amp;nbsp;&amp;nbsp;&amp;nbsp;&amp;nbsp; Trigger&lt;br&gt;&lt;/font&gt;&lt;/b&gt;&lt;/div&gt;" style="text;html=1;strokeColor=none;fillColor=none;align=left;verticalAlign=middle;whiteSpace=wrap;rounded=0;" vertex="1" parent="1">
          <mxGeometry x="462.5" y="-40" width="240" height="80" as="geometry" />
        </mxCell>
        <mxCell id="fPrg2TbG4v94ZWlZi-Cl-12" value="" style="endArrow=classic;html=1;edgeStyle=orthogonalEdgeStyle;entryX=0.5;entryY=0;entryDx=0;entryDy=0;exitX=1.008;exitY=0.467;exitDx=0;exitDy=0;exitPerimeter=0;" edge="1" parent="1" source="fPrg2TbG4v94ZWlZi-Cl-9" target="fPrg2TbG4v94ZWlZi-Cl-8">
          <mxGeometry width="50" height="50" relative="1" as="geometry">
            <mxPoint x="800" y="30" as="sourcePoint" />
            <mxPoint x="850" y="-20" as="targetPoint" />
          </mxGeometry>
        </mxCell>
        <mxCell id="fPrg2TbG4v94ZWlZi-Cl-13" value="&lt;div style=&quot;font-size: 14px&quot;&gt;&lt;i&gt;&lt;font style=&quot;font-size: 14px&quot;&gt;1.Create Task&lt;/font&gt;&lt;/i&gt;&lt;/div&gt;&lt;div style=&quot;font-size: 14px&quot;&gt;&lt;i&gt;&lt;font style=&quot;font-size: 14px&quot;&gt;2.GetRTPlan&lt;/font&gt;&lt;/i&gt;&lt;/div&gt;&lt;div style=&quot;font-size: 14px&quot;&gt;&lt;i&gt;&lt;font style=&quot;font-size: 14px&quot;&gt;3.Map RTPlan to Synopsis&lt;/font&gt;&lt;/i&gt;&lt;/div&gt;&lt;div style=&quot;font-size: 14px&quot;&gt;&lt;i&gt;&lt;font style=&quot;font-size: 14px&quot;&gt;4.Store Data&lt;br&gt;&lt;/font&gt;&lt;/i&gt;&lt;/div&gt;" style="text;html=1;strokeColor=none;fillColor=none;align=center;verticalAlign=middle;whiteSpace=wrap;rounded=0;" vertex="1" parent="1">
          <mxGeometry x="870" y="195" width="180" height="95" as="geometry" />
        </mxCell>
      </root>
    </mxGraphModel>
  </diagram>
</mxfile>
